<?xml version="1.0" encoding="utf-8"?>
<!-- Generator: Adobe Illustrator 26.4.1, SVG Export Plug-In . SVG Version: 6.00 Build 0)  -->
<svg version="1.1" id="Layer_1" xmlns="http://www.w3.org/2000/svg" xmlns:xlink="http://www.w3.org/1999/xlink" x="0px" y="0px"
	 viewBox="0 0 593.9 183" style="enable-background:new 0 0 593.9 183;" xml:space="preserve">
<style type="text/css">
	.st0{fill:#161616;}
</style>
<g>
	<g>
		<path class="st0" d="M131.3,83.8c-7.8,0-20.4-0.1-28.8-0.1c-4,0-7.4-0.1-10.5-0.1l-0.6-1.7c5.2-5.7,16.7-44.9,20.4-69.8L99.3,7.7
			l0.1-1.5c5.2,0.2,21.1,0.3,29.5,0.3c9.1,0,20.3-0.6,25.8-0.6c3.4,0,5,1.5,5,4c0,5.2-6.1,16.1-12.2,25.3h-2.4
			c3.4-7.7,5.1-15.7,4.9-20.7c-0.2-4-2-5.6-7.6-5.6h-20.1c-1.1,10.5-3.9,23.9-7.1,36.5h8.6c5.8,0,11.2-2.5,16.5-7.7l0.9,0.5
			c-1.4,5.4-3.4,11.8-5.4,16.9l-0.8,0.1c-1.7-4.6-7.5-7.6-13.4-7.6h-7c-3.9,14.6-8.4,27.8-12,33.7h16.2c3.3,0,7.8-0.8,11.2-2.5
			c6.6-3.4,12.8-12.9,15.5-24.5h2.2c-1.9,14.4-2.7,18.5-4.1,22.8C142,82.1,139,83.8,131.3,83.8z"/>
		<path class="st0" d="M199.7,85.4c-4.8,0-7.8-2.9-7.8-8c0-4.5,1.5-9.2,7.4-23.1l-2-0.6c-2.2,4.2-4.8,9-7.5,13.1
			c-5.8,10.1-12.9,18.6-22.3,18.6c-5.8,0-9.4-4.3-9.4-10c0-5.1,2.8-12.9,5.8-20.8c2.9-7.7,5.8-15.7,5.8-21.3c0-2.2-0.9-2.8-2.4-2.8
			s-2.9,0.5-4.5,1.1l-0.2-0.2l0.6-2.2c2.8-1.2,6-2.2,8.9-2.2c4.9,0,7.9,2.9,7.9,8c0,5.2-2.8,12.5-5.4,19.8
			c-2.6,7.3-5.4,14.7-5.4,20.5c0,3.1,1.6,4.9,3.9,4.9c4.1,0,8.3-4.6,13.3-12.3c7.1-11.1,14-27.6,19-41c3.4,0.8,7,2.5,9,4.6
			c-0.9,8-12.5,37.7-12.5,47.9c0,1.2,0.2,2.2,0.7,2.8c7.5-0.9,16.4-7.9,22.2-13.4l0.3,0.3V72C218.4,78.3,208,85.4,199.7,85.4z"/>
		<path class="st0" d="M231.9,111.9c-9.7,0-20.2-6.6-21-15.5c2.5-5.2,10-12.2,15.4-14.2l1.5,0.7c-3.7,3.1-6.7,7.5-6.7,12.3
			c0,7,6.5,14.3,14.4,14.3c5.6,0,10.2-11.4,14.2-24.4c3.2-10.3,6.1-21.8,8.3-29.3l-1.8,0.2c-0.8,1.5-3.2,6-3.9,7.5
			c-5.7,10.9-12.1,18.6-19,18.6c-8,0-11.9-8.5-11.9-20.3c0-17,9.9-34.8,24.1-34.8c6.1,0,11.1,3.5,14.1,7.5l-1,2.9
			c-2.7-3.4-6.7-7.3-11.6-7.3c-7.5,0-14.8,14-14.8,30.9c0,8.5,1.7,14.3,5.8,14.3c3.6,0,7.8-5.2,12.1-13.3c5-9.4,10.1-22.2,14.4-33.6
			c3.1,0.9,6.9,2.6,9.1,5.1c-4,11.6-8.7,34.4-13.1,48.3C254.3,100.5,245,111.9,231.9,111.9z"/>
		<path class="st0" d="M289.8,64.1c0,9.3,4.2,16.2,13.1,16.2c8.3,0,18.9-6,28-14.7l0.5,0.2v2.8c-10.2,9.1-23.3,16.8-34.1,16.8
			c-12.1,0-18.1-7.6-18.1-20.3c0-16.4,12.7-38.1,30.9-38.1c6.3,0,12.3,2.6,12.3,9.3c0,10.2-17,18.8-29.6,22.4l-0.3-1.4
			c8.6-4.4,20.4-12.7,20.4-22.2c0-3.3-1.2-5.4-4.9-5.4C298.5,29.8,289.8,47.6,289.8,64.1z"/>
		<path class="st0" d="M370.6,85.4c-5,0-7.9-2.9-7.9-8.2c0-5,2.5-12.5,5.1-19.9c2.9-8,5.9-16.2,5.9-21.1c0-2.7-1.2-4.1-3.7-4.1
			c-4.3,0-8.8,4.6-13.8,11.9c-6.7,10-13.7,24-22.7,41.4c-2.9-0.2-7.4-1.4-9.2-2.5c3.4-7.3,12.2-34.9,13-49.7l-4.1-3.6l0.1-0.9
			c3.5-0.9,10.5-1.6,14.2-1.6l1.2,0.8c0,9.2-4.4,24.7-9.7,37.3l1.5,0.6c3.7-7.3,7.9-15.6,13-23.1c6-8.7,12.8-15.5,21-15.5
			c6.6,0,10.3,3.6,10.3,9c0,4.8-3.1,13.6-6.2,22.2c-2.9,8.4-5.7,16.7-5.7,21.2c0,1.1,0.1,2.2,0.6,2.7c7.5-0.8,16.4-7.8,22.1-13.3
			l0.5,0.2v2.9C389.7,78.1,378.9,85.4,370.6,85.4z"/>
		<path class="st0" d="M400.1,85.4c-4.9,0-8.4-2.9-8.4-8.3c0-5.1,2.4-12.8,5-20.8c2.5-8,5.3-16.5,6-23.2l-4.1-3.5l0.2-0.9
			c4.2-0.9,10.1-1.6,14.1-1.6l1.2,0.8c0,5.8-2.7,15.6-5.7,25.4c-3.1,10-6.5,20.2-6.5,26.1c0,1.4,0.2,2.4,0.6,3.1
			c6.7-0.6,16-7.7,21.6-13.3l0.5,0.2v2.9C418.3,78.3,408.4,85.4,400.1,85.4z M403.9,7.6c0-4.8,4.3-7.6,7.9-7.6
			c3.3,0,5.6,2.3,5.6,5.3c0,4.8-4.1,7.6-7.7,7.6C406.4,12.9,403.9,10.7,403.9,7.6z"/>
		<path class="st0" d="M467.8,57c-4.8,18-20.4,28.3-33.3,28.3c-9.4,0-15.5-6.3-15.5-16s6.1-18.6,13.3-23.9c0.8,0.8,2.8,3.1,3.6,4.1
			c-3.4,4-6.2,9.7-6.2,17c0,9.2,3.6,15.4,10.7,15.4c9.4,0,15.1-11.4,17.6-22.9C461.6,58.7,465.2,58,467.8,57z M436.8,42.8
			c0-11.6,6.5-20.5,16.9-20.5c10.7,0,15.5,11.4,15.5,23.9c0,1.9-0.1,4.3-0.3,6c12.1-3.5,26.7-12.9,26.7-26.2c0-3.1-1.2-7.8-4.6-10.7
			l0.3-0.8c3.9,0.7,7,2,10.2,4.1c0.8,2.2,1,4,1,5.7c0,16.1-25.9,32.9-49.5,32.9C443.8,57.2,436.8,52.6,436.8,42.8z M453.9,54.7
			c1.5,0,2.9-0.1,4.6-0.3c0.2-2,0.3-4,0.3-5.9c0-11.1-2.2-22.7-8.5-22.7c-5,0-10.1,6.2-10.1,15.7C440.3,51.7,446.4,54.7,453.9,54.7z
			"/>
	</g>
	<g>
		<path class="st0" d="M285.2,127.9c-4.8,18-20.4,28.4-33.4,28.4c-9.4,0-15.5-6.3-15.5-16s6.1-18.6,13.3-23.9
			c0.8,0.8,2.8,3.1,3.6,4.1c-3.4,4-6.2,9.7-6.2,17c0,9.2,3.6,15.4,10.7,15.4c9.4,0,15.1-11.4,17.6-22.9
			C278.9,129.7,282.6,129,285.2,127.9z M270.2,128.3c-9.2,0-16.2-4.6-16.2-14.4c0-11.6,6.5-20.5,16.9-20.5
			c10.6,0,15.5,11.4,15.5,23.9c0,2-0.1,4.1-0.3,5.8c7.7-2.4,15-6.5,21.8-11.9l0.5,0.3v2.6C297.7,121.5,284.1,128.3,270.2,128.3z
			 M271.1,125.8c1.5,0,2.9-0.1,4.6-0.3c0.2-2,0.3-4,0.3-5.9c0-11.1-2.2-22.7-8.5-22.7c-5,0-10.1,6.2-10.1,15.7
			C257.5,122.7,263.6,125.8,271.1,125.8z"/>
		<path class="st0" d="M303.1,183c-4.3-0.3-9.4-1.2-13-2.7c-0.5-1.5-0.7-3.3-0.7-5.1c0-10.3,5.8-27.1,11-43.6
			c3.5-11.2,6.2-22.7,7.5-33.9l-4-3.7l0.1-1c4.2-0.9,9.3-1.6,13.3-1.6l1.2,0.8c0,7.1-4.5,22.4-8.3,33.4h1.8
			C318.2,112,326.3,98,335.6,98c7.8,0,11.9,6.7,11.9,18.5c0,18.5-11.6,39.9-26.9,39.9c-5.3,0-9.5-3.5-12.2-8.5l1.1-2.8
			c3.2,5.2,6,8.7,10.3,8.7c8.2,0,17-18,17-36.6c0-8.4-1.8-12.3-5.6-12.3c-5.1,0-12.2,10.5-19,26.1c-2.9,6.7-5.3,14.3-7.7,21.6
			c-1.9,6.8-4.5,14-4.5,20.2c0,4.8,1,7.8,3.4,9.5L303.1,183z"/>
		<path class="st0" d="M366.2,135.2c0,9.3,4.2,16.2,13.1,16.2c8.3,0,18.9-6,28-14.7l0.5,0.2v2.8c-10.2,9.1-23.3,16.8-34.1,16.8
			c-12.1,0-18.1-7.6-18.1-20.3c0-16.4,12.7-38.1,30.9-38.1c6.3,0,12.3,2.6,12.3,9.3c0,10.2-17,18.8-29.6,22.4l-0.3-1.4
			c8.6-4.4,20.4-12.7,20.4-22.2c0-3.3-1.2-5.4-4.9-5.4C374.9,100.9,366.2,118.6,366.2,135.2z"/>
		<path class="st0" d="M402.2,148.9c1.1,1.8,3.6,4.8,4.3,7.4l-0.6,1.1c-2.9-0.2-5.9-0.7-9-1.6l1.2-4.3c4.1-15.5,17.9-21,29-27.3
			c9.6-5.8,14.4-8.2,18.1-12.5l-0.7-1.2c-1.9,1.4-3.9,2-6.5,2c-5.7,0-13.4-5.9-19.3-5.9c-3.6,0-5.1,1.8-9,8.2l-1.6-1
			c3.4-7.9,7.7-15.2,15.7-15.2c7.4,0,16.1,6.7,23.7,6.7c1.8,0,2.5-0.8,2.5-1.8c-1.4-2-3.6-5-4.3-7.4l0.6-1.1
			c2.8,0.1,5.8,0.7,8.8,1.6l-0.9,4.1c-1.9,13.1-13.8,18.9-26.6,26.2c-8.4,4.8-16.3,9-20.7,14.4l0.8,1.2c1.8-1.4,3.5-1.9,5.8-1.9
			c7.6,0,18.1,20.5,25.9,20.5c3.4,0,5.3-1.6,8.8-6.8l1.6,1.1c-3.7,7-9.6,12.9-16,12.9c-10,0-20.1-21.2-28.7-21.2
			C403.7,147.1,402.2,147.9,402.2,148.9z"/>
	</g>
	<g>
		<path class="st0" d="M208.6,167.4c-7.5,0-18.5-0.2-26.5-0.2h-12.7l-0.6-1.6c5.2-5.7,15.9-44,20-70l-12.8-4l0.1-0.9
			c3.5-0.6,16.3-1.6,22.2-1.6l1.6,0.9c-2.4,23.1-13,63.2-20,74.7h16.2c3.4,0,8-0.8,11.1-2.4c6.3-3.1,12.2-14.2,15.5-26.3h2.1
			c-1.3,11.2-2.8,20.1-4.2,24.6C219.1,165.7,216.1,167.4,208.6,167.4z"/>
	</g>
</g>
</svg>
